<svg width="24" height="24" viewBox="0 0 24 24" fill="none" xmlns="http://www.w3.org/2000/svg">
<path fill-rule="evenodd" clip-rule="evenodd" d="M18.593 0C18 0 17.5116 0.488372 17.407 1.08139C16.9186 3.59302 14.686 5.47674 12.0349 5.47674C9.38372 5.47674 7.18605 3.59302 6.66279 1.08139C6.55814 0.488372 6.06977 0 5.47674 0H1.08139C0.488372 0 0 0.488372 0 1.08139V5.44186C0 6.03488 0.488372 6.52326 1.08139 6.62791C3.59302 7.11628 5.47674 9.34884 5.47674 12C5.47674 14.6512 3.59302 16.8488 1.08139 17.3721C0.488372 17.4767 0 17.9651 0 18.5581V22.9186C0 23.5116 0.488372 24 1.08139 24H5.44186C6.03488 24 6.52326 23.5116 6.62791 22.9186C7.11628 20.407 9.34884 18.5233 12 18.5233C14.6512 18.5233 16.8488 20.407 17.3721 22.9186C17.4767 23.5116 17.9651 24 18.5581 24H22.9186C23.5116 24 24 23.5116 24 22.9186V18.5581C24 17.9651 23.5116 17.4767 22.9186 17.3721C20.407 16.8837 18.5233 14.6512 18.5233 12C18.5233 9.34884 20.407 7.15116 22.9186 6.62791C23.5116 6.52326 24 6.03488 24 5.44186V1.08139C24 0.488372 23.5116 0 22.9186 0H18.593Z" fill="#6AE8C5"/>
</svg>
