<svg width="168" height="24" viewBox="0 0 168 24" fill="none" xmlns="http://www.w3.org/2000/svg">
<path fill-rule="evenodd" clip-rule="evenodd" d="M18.593 0C18 0 17.5116 0.488372 17.407 1.08139C16.9186 3.59302 14.686 5.47674 12.0349 5.47674C9.38372 5.47674 7.18605 3.59302 6.66279 1.08139C6.55814 0.488372 6.06977 0 5.47674 0H1.08139C0.488372 0 0 0.488372 0 1.08139V5.44186C0 6.03488 0.488372 6.52326 1.08139 6.62791C3.59302 7.11628 5.47674 9.34884 5.47674 12C5.47674 14.6512 3.59302 16.8488 1.08139 17.3721C0.488372 17.4767 0 17.9651 0 18.5581V22.9186C0 23.5116 0.488372 24 1.08139 24H5.44186C6.03488 24 6.52326 23.5116 6.62791 22.9186C7.11628 20.407 9.34884 18.5233 12 18.5233C14.6512 18.5233 16.8488 20.407 17.3721 22.9186C17.4767 23.5116 17.9651 24 18.5581 24H22.9186C23.5116 24 24 23.5116 24 22.9186V18.5581C24 17.9651 23.5116 17.4767 22.9186 17.3721C20.407 16.8837 18.5233 14.6512 18.5233 12C18.5233 9.34884 20.407 7.15116 22.9186 6.62791C23.5116 6.52326 24 6.03488 24 5.44186V1.08139C24 0.488372 23.5116 0 22.9186 0H18.593Z" fill="#6AE8C5"/>
<path d="M73.744 21.6976H70.3603L70.0115 18.5232C69.558 19.6744 68.8254 20.5465 67.8487 21.1744C66.8719 21.8023 65.6859 22.1162 64.2905 22.1162C62.2673 22.1162 60.6975 21.5232 59.6161 20.3721C58.5347 19.186 57.9766 17.5116 57.9766 15.3488V6.10461H61.9882V14.3372C61.9882 15.8372 62.3021 16.9186 62.93 17.6511C63.558 18.3488 64.4998 18.6976 65.7905 18.6976C67.0114 18.6976 67.9882 18.279 68.651 17.4069C69.3487 16.5697 69.7324 15.3837 69.7324 13.8837V6.10461H73.7789L73.744 21.6976Z" fill="white"/>
<path d="M89.0928 17.093H93.4533C92.8254 18.7675 91.8138 20.0233 90.3138 20.8954C88.8487 21.7326 86.9998 22.1861 84.7324 22.1861C81.8719 22.1861 79.7091 21.5233 78.2091 20.1628C76.7091 18.8023 75.9766 16.8489 75.9766 14.2675V14.0233C75.9766 11.5116 76.7789 9.48839 78.4184 7.98839C80.0231 6.48839 82.1859 5.72095 84.9417 5.72095C87.6277 5.72095 89.7556 6.4535 91.2905 7.91862C92.8254 9.38374 93.6277 11.3023 93.6277 13.7442V15.3837H79.8487C80.058 16.5698 80.5812 17.4768 81.4184 18.1047C82.2556 18.6977 83.4417 19.0116 84.9417 19.0116C86.0231 19.0116 86.8952 18.8721 87.5928 18.5582C88.2556 18.1744 88.7789 17.7209 89.0928 17.093ZM85.0463 8.75583C83.6161 8.75583 82.4998 9.06978 81.6277 9.69769C80.7556 10.3256 80.1975 11.1977 79.9533 12.3837H89.7208C89.5463 11.1628 89.058 10.2907 88.2905 9.66281C87.4882 9.06978 86.4068 8.75583 85.0463 8.75583Z" fill="white"/>
<path d="M111.419 16.8837C111.419 18.5232 110.756 19.8139 109.361 20.7558C108 21.6977 106.082 22.1511 103.675 22.1511C101.024 22.1511 98.9655 21.6977 97.5352 20.7907C96.0701 19.8488 95.2329 18.4535 94.9189 16.5698H99.3492C99.5236 17.407 99.9771 18.0349 100.675 18.4186C101.372 18.8023 102.454 18.9767 103.814 18.9767C105.07 18.9767 105.977 18.8372 106.535 18.5232C107.128 18.2093 107.442 17.7209 107.442 17.0581C107.442 16.5349 107.163 16.1511 106.57 15.907C105.977 15.6628 104.651 15.4884 102.524 15.3139C99.9422 15.1046 98.1282 14.6511 97.0817 13.9535C96.0701 13.2209 95.5468 12.1744 95.5468 10.7791C95.5468 9.20929 96.1748 7.91859 97.4655 7.0465C98.7562 6.13952 100.57 5.68604 102.872 5.68604C105.279 5.68604 107.163 6.10464 108.524 6.97673C109.884 7.81394 110.791 9.13952 111.14 10.8488H106.954C106.814 10.1163 106.396 9.55813 105.733 9.20929C105.07 8.86045 104.128 8.68603 102.872 8.68603C101.721 8.68603 100.884 8.82557 100.291 9.13952C99.7329 9.41859 99.4538 9.87208 99.4538 10.4651C99.4538 11.0232 99.7329 11.407 100.326 11.6163C100.919 11.8605 102.245 12.0349 104.268 12.2093C106.989 12.4535 108.872 12.907 109.884 13.6046C110.896 14.3721 111.419 15.4186 111.419 16.8837Z" fill="white"/>
<path d="M122.756 18.1046H124.395V21.6976H121.744C119.372 21.6976 117.732 21.2442 116.86 20.3023C115.988 19.3604 115.57 17.5814 115.57 14.8953V9.593H111.977V6.31393C112.535 6.31393 112.953 6.31393 113.232 6.31393C113.511 6.27904 113.791 6.27904 114.035 6.24416C114.663 6.20928 115.116 6.10462 115.325 5.82555C115.57 5.54648 115.744 5.02323 115.814 4.29067C115.884 3.97672 115.918 3.62788 115.918 3.13951C115.953 2.68602 115.953 2.23253 115.953 1.91858H119.337V6.10463H124.465V9.593H119.337V14.2325C119.337 15.9418 119.546 16.9883 119.93 17.4767C120.244 17.8953 121.221 18.1046 122.756 18.1046Z" fill="white"/>
<path d="M136.988 15.7325H136.535L130.535 8.26742V21.6976H126.732V2.37207H130.43L136.884 10.5697L143.477 2.37207H147.035V21.6628H143.198V8.16277L136.988 15.7325Z" fill="white"/>
<path d="M162.558 17.093H166.918C166.29 18.7675 165.279 20.0233 163.779 20.8954C162.314 21.7326 160.465 22.1861 158.197 22.1861C155.337 22.1861 153.174 21.5233 151.674 20.1628C150.174 18.8023 149.441 16.8489 149.441 14.2675V14.0233C149.441 11.5116 150.244 9.48839 151.883 7.98839C153.488 6.48839 155.651 5.72095 158.407 5.72095C161.093 5.72095 163.22 6.4535 164.755 7.91862C166.29 9.38374 167.093 11.3023 167.093 13.7442V15.3837H153.314C153.523 16.5698 154.046 17.4768 154.883 18.1047C155.72 18.6977 156.907 19.0116 158.407 19.0116C159.488 19.0116 160.36 18.8721 161.058 18.5582C161.755 18.1744 162.209 17.7209 162.558 17.093ZM158.476 8.75583C157.046 8.75583 155.93 9.06978 155.058 9.69769C154.186 10.3256 153.627 11.1977 153.383 12.3837H163.151C162.976 11.1628 162.488 10.2907 161.72 9.66281C160.953 9.06978 159.872 8.75583 158.476 8.75583Z" fill="white"/>
<path d="M55.3258 12.2791C55.3258 11.8256 54.9421 11.4768 54.5235 11.4768H51.2793H45.4188V14.7907H51.3142C51.1746 16.0117 50.6514 16.9884 49.7444 17.6861C48.8026 18.3489 47.5467 18.6977 45.9072 18.6977C44.0235 18.6977 42.6281 18.2093 41.6863 17.2326C40.7793 16.2558 40.3258 14.721 40.3607 12.6977V11.721C40.3607 9.66282 40.8142 8.09305 41.7909 7.04654C42.7328 6.03491 44.163 5.51166 46.0816 5.51166C47.5467 5.51166 48.663 5.79073 49.4653 6.41864C50.2677 7.01166 50.756 7.91864 50.9305 9.10468H55.256C55.0119 6.80236 54.1049 5.05817 52.5351 3.83724C50.9653 2.61631 48.8026 1.9884 46.0816 1.9884C43.0467 1.9884 40.6398 2.82561 38.8956 4.53492C37.1514 6.20933 36.2793 8.58143 36.2793 11.6163V12.7675C36.2793 15.8372 37.0119 18.1744 38.477 19.7442C39.977 21.314 42.1398 22.1163 44.9653 22.1163C46.9188 22.1163 48.4886 21.6628 49.6746 20.7558C50.8956 19.814 51.6281 18.5233 51.9421 16.814L52.2212 21.6977H55.3607V15.5582V12.2791H55.3258Z" fill="white"/>
</svg>
